<?xml version="1.0" standalone="no"?>
<!DOCTYPE svg PUBLIC "-//W3C//DTD SVG 20010904//EN"
 "http://www.w3.org/TR/2001/REC-SVG-20010904/DTD/svg10.dtd">
<svg version="1.0" xmlns="http://www.w3.org/2000/svg"
 width="300.000000pt" height="300.000000pt" viewBox="0 0 300.000000 300.000000"
 preserveAspectRatio="xMidYMid meet">
<metadata>
Created by potrace 1.14, written by Peter Selinger 2001-2017
</metadata>
<g transform="translate(0.000000,300.000000) scale(0.100000,-0.100000)"
fill="#000000" stroke="none">
<path d="M425 2673 c-44 -23 -74 -53 -96 -95 -18 -36 -19 -75 -19 -1078 0
-939 2 -1044 16 -1073 23 -45 53 -76 96 -98 36 -18 75 -19 1078 -19 1003 0
1042 1 1078 19 43 22 73 53 96 98 14 29 16 134 16 1073 0 1003 -1 1042 -19
1078 -22 43 -53 73 -98 96 -29 14 -134 16 -1075 16 -931 -1 -1046 -2 -1073
-17z m1290 -323 c561 -144 827 -774 541 -1284 -107 -192 -309 -347 -532 -408
-114 -31 -334 -31 -449 0 -281 78 -515 299 -604 572 -32 100 -42 166 -42 282
0 491 410 883 901 863 60 -2 140 -13 185 -25z"/>
<path d="M1426 1990 c-68 -21 -124 -80 -152 -157 -7 -21 -13 -75 -14 -120 l0
-83 -44 0 c-29 0 -52 -7 -70 -21 l-26 -20 0 -275 0 -275 25 -25 25 -25 336 3
336 3 19 24 c18 22 19 42 19 297 0 261 -1 275 -20 294 -15 15 -33 20 -69 20
l-49 0 -4 103 c-3 69 -9 112 -21 133 -21 41 -71 90 -110 111 -37 18 -140 26
-181 13z m150 -109 c46 -28 64 -75 64 -170 l0 -81 -140 0 -140 0 0 81 c0 131
43 189 140 189 26 0 58 -8 76 -19z m-23 -501 c33 -26 43 -70 23 -108 -17 -33
-34 -42 -76 -42 -42 0 -59 9 -76 42 -29 57 13 128 76 128 15 0 39 -9 53 -20z"/>
</g>
</svg>
